# xmcd
#
# Track frame offsets: 
#        182
#        12375
#        26292
#        37882
#        50570
#        61517
#        75767
#        93017
#        105262
#        116965
#        126800
#        139582
#        151255
#        160250
#        172555
#        183740
#        196605
#        207372
#        220412
#        231622
#        242532
#        252915
#        264597
#        277252
#        289340
#        302175
#        314952
#        326627
#        339240
#
# Disc length: 4690 seconds
#
# Revision: 2
# Processed by: cddbd v1.5.2PL0 Copyright (c) Steve Scherf et al.
# Submitted via: ExactAudioCopy v1.0b3
#
DISCID=9412501d
DTITLE=Bruce, Ed - Puzzles
DYEAR=1995
DGENRE=Country
TTITLE0=Puzzles (UWA4 3305)
TTITLE1=Blue Denim Eyes
TTITLE2=By Route Of New Orleans
TTITLE3=Shadows Of Her Mind
TTITLE4=Lonesome Is Me
TTITLE5=Tiny Golden Locket
TTITLE6=If I Could Just Go Home
TTITLE7=Walker's Woods
TTITLE8=Give Me More Than You Take (TWA4 1427)
TTITLE9=I'm Getting Better
TTITLE10=Painted Girls And Wine
TTITLE11=The Price I Pay To Stay
TTITLE12=Something Else To Mess Your Mind
TTITLE13=I Know Better
TTITLE14=Memphis Morning
TTITLE15=Blue Bayou
TTITLE16=Why Can't I Come Home
TTITLE17=Last Train To Clarksville
TTITLE18=Her Sweet Love And The Baby
TTITLE19=I'll Take You Away
TTITLE20=Ninety Seven More To Go
TTITLE21=I'd Best Be Leaving You (UWA4 2530)
TTITLE22=Puzzles (WWA4 1796)
TTITLE23=The Ballad Of The Drummer Boy
TTITLE24=Painted Girls And Wine (overdub)
TTITLE25=Blue Bayou (overdub)
TTITLE26=Give Me More Than You Take (WWA4 1862)
TTITLE27=I'd Best Be Leaving You (UWA4 2226)
TTITLE28=Puzzles (WWAA4 1861)
EXTD=
EXTT0=
EXTT1=
EXTT2=
EXTT3=
EXTT4=
EXTT5=
EXTT6=
EXTT7=
EXTT8=
EXTT9=
EXTT10=
EXTT11=
EXTT12=
EXTT13=
EXTT14=
EXTT15=
EXTT16=
EXTT17=
EXTT18=
EXTT19=
EXTT20=
EXTT21=
EXTT22=
EXTT23=
EXTT24=
EXTT25=
EXTT26=
EXTT27=
EXTT28=
PLAYORDER=
